wdth50.ufo
<glyph name="A" format="2">
	<unicode hex="0041"/>
	<advance width="1468"/>
	<outline>
		<contour>
			<point x="-27.7401123047" y="0" type="line"/>
			<point x="-27.7401123047" y="99.9978027344" type="line"/>
			<point x="145.4468994141" y="134.9978027344" type="line"/>
			<point x="311.0681762695" y="570.185546875" type="line"/>
			<point x="664.0269165039" y="1508" type="line"/>
			<point x="784.7733154297" y="1508" type="line"/>
			<point x="1141.8317260742" y="586.3224487305" type="line"/>
			<point x="1319.7722167969" y="133.9978027344" type="line"/>
			<point x="1480.5556640625" y="99.9978027344" type="line"/>
			<point x="1480.5556640625" y="0" type="line"/>
			<point x="962.4586791992" y="0" type="line"/>
			<point x="962.4586791992" y="99.9978027344" type="line"/>
			<point x="1129.4824829102" y="133.9978027344" type="line"/>
			<point x="978.6380004883" y="534.4071655273" type="line"/>
			<point x="779" y="1132" type="line"/>
			<point x="742" y="1246" type="line"/>
			<point x="732" y="1246" type="line"/>
			<point x="695" y="1132" type="line"/>
			<point x="425.2513427734" y="536.9354248047" type="line"/>
			<point x="284.7799072266" y="133.9978027344" type="line"/>
			<point x="449.3229980469" y="99.9978027344" type="line"/>
			<point x="449.3229980469" y="0" type="line"/>
		</contour>
		<contour>
			<point x="685.8693847656" y="611.5479736328" type="line"/>
			<point x="1059.8648681641" y="598.2905883789" type="line"/>
			<point x="1104.9487915039" y="474.6743774414" type="line"/>
			<point x="685.8693847656" y="501.3487548828" type="line"/>
		</contour>
		<contour>
			<point x="321.9742431641" y="474.6743774414" type="line"/>
			<point x="368.4756469727" y="597.2583007812" type="line"/>
			<point x="685.8693847656" y="611.5479736328" type="line"/>
			<point x="685.8693847656" y="501.3487548828" type="line"/>
		</contour>
	</outline>
	<anchor name="bottom" x="735" y="0"/>
	<anchor name="ogonek" x="1318" y="0"/>
	<anchor name="tonos" x="492" y="1500"/>
	<anchor name="top" x="753" y="1500"/>
</glyph>
<glyph name="B" format="2">
	<unicode hex="0042"/>
	<advance width="1267"/>
	<outline>
		<contour>
			<point x="82.01171875" y="0" type="line"/>
			<point x="82.01171875" y="99.9978027344" type="line"/>
			<point x="290.005859375" y="134.9978027344" type="line"/>
			<point x="292.005859375" y="764.1794433594" type="line"/>
			<point x="290.005859375" y="1353.4425048828" type="line"/>
			<point x="82.01171875" y="1387.4425048828" type="line"/>
			<point x="82.01171875" y="1500" type="line"/>
			<point x="674.7532958984" y="1500" type="line" smooth="yes"/>
			<point x="895.3889160156" y="1500"/>
			<point x="1094.5747070312" y="1315"/>
			<point x="1094.5747070312" y="1166" type="qcurve" smooth="yes"/>
			<point x="1094.5747070312" y="1009"/>
			<point x="951.9612426758" y="853"/>
			<point x="862" y="831" type="qcurve"/>
			<point x="862" y="821" type="line"/>
			<point x="996.2357177734" y="791"/>
			<point x="1187.7169799805" y="604"/>
			<point x="1187.7169799805" y="433" type="qcurve" smooth="yes"/>
			<point x="1187.7169799805" y="246"/>
			<point x="929.0461425781" y="0"/>
			<point x="718.9411621094" y="0" type="qcurve" smooth="yes"/>
		</contour>
		<contour>
			<point x="469.0686645508" y="144.4010009766" type="line"/>
			<point x="501.2122192383" y="118.4870605469" type="line"/>
			<point x="643.9838256836" y="118.4870605469" type="line" smooth="yes"/>
			<point x="825.6528320312" y="118.4870605469"/>
			<point x="1000.3051757812" y="269.7156982422"/>
			<point x="1000.3051757812" y="440" type="qcurve" smooth="yes"/>
			<point x="1000.3051757812" y="584.9989013672"/>
			<point x="850.4989013672" y="735.3524169922"/>
			<point x="700.5852661133" y="735.3524169922" type="qcurve" smooth="yes"/>
			<point x="477.9300537109" y="735.3524169922" type="line"/>
			<point x="468.8941650391" y="718.427734375" type="line"/>
		</contour>
		<contour>
			<point x="468.8359985352" y="868.7462158203" type="line"/>
			<point x="476.3629150391" y="852.8071899414" type="line"/>
			<point x="621.1366577148" y="852.8071899414" type="line" smooth="yes"/>
			<point x="774.3135986328" y="852.8071899414"/>
			<point x="911.5700683594" y="990.0622558594"/>
			<point x="911.5700683594" y="1129" type="qcurve" smooth="yes"/>
			<point x="911.5700683594" y="1260.0804443359"/>
			<point x="785.3853759766" y="1366.0286254883"/>
			<point x="623.2084350586" y="1366.0286254883" type="qcurve" smooth="yes"/>
			<point x="499.2703857422" y="1366.0286254883" type="line"/>
			<point x="471.1268310547" y="1342.6236572266" type="line"/>
		</contour>
	</outline>
	<anchor name="bottom" x="614" y="0"/>
	<anchor name="top" x="614" y="1500"/>
</glyph>
<glyph name="C" format="2">
	<unicode hex="0043"/>
	<advance width="1482"/>
	<outline>
		<contour>
			<point x="80.0009765625" y="693" type="qcurve" smooth="yes"/>
			<point x="80.0009765625" y="1050"/>
			<point x="492.3854370117" y="1514"/>
			<point x="831.6182250977" y="1514" type="qcurve" smooth="yes"/>
			<point x="977.3582763672" y="1514"/>
			<point x="1166.1233520508" y="1425"/>
			<point x="1210.9553222656" y="1383" type="qcurve"/>
			<point x="1240.1527099609" y="1499" type="line"/>
			<point x="1330.643737793" y="1499" type="line"/>
			<point x="1330.643737793" y="1019.8178710938" type="line"/>
			<point x="1222.8862304688" y="1019.8178710938" type="line"/>
			<point x="1180.4822387695" y="1217" type="line" smooth="yes"/>
			<point x="1164.3925170898" y="1285"/>
			<point x="1005.1165161133" y="1382.0932006836"/>
			<point x="861.6564941406" y="1382.0932006836" type="qcurve" smooth="yes"/>
			<point x="587.2652587891" y="1382.0932006836"/>
			<point x="268.6454467773" y="1040.0793457031"/>
			<point x="268.6454467773" y="728" type="qcurve" smooth="yes"/>
			<point x="268.6454467773" y="408.9410400391"/>
			<point x="583.6691894531" y="119.6162109375"/>
			<point x="841.0949707031" y="119.6162109375" type="qcurve" smooth="yes"/>
			<point x="1035.3265380859" y="119.6162109375"/>
			<point x="1256.1334838867" y="210.7776489258"/>
			<point x="1325.4376831055" y="309.5184326172" type="qcurve"/>
			<point x="1422.3435668945" y="242" type="line"/>
			<point x="1341.2244873047" y="130"/>
			<point x="1036.5197753906" y="-34"/>
			<point x="838.6943359375" y="-34" type="qcurve" smooth="yes"/>
			<point x="502.7530517578" y="-34"/>
			<point x="80.0009765625" y="353"/>
		</contour>
	</outline>
	<anchor name="bottom" x="836" y="0"/>
	<anchor name="top" x="836" y="1500"/>
</glyph>
<glyph name="D" format="2">
	<unicode hex="0044"/>
	<advance width="1587"/>
	<outline>
		<contour>
			<point x="82.01171875" y="0" type="line"/>
			<point x="82.01171875" y="98.9978027344" type="line"/>
			<point x="290.005859375" y="133.9978027344" type="line"/>
			<point x="292.1221923828" y="754" type="line"/>
			<point x="290.005859375" y="1353.4425048828" type="line"/>
			<point x="82.01171875" y="1387.4425048828" type="line"/>
			<point x="82.01171875" y="1500" type="line"/>
			<point x="720.4514770508" y="1500" type="line" smooth="yes"/>
			<point x="1064.9697265625" y="1500"/>
			<point x="1505.1350097656" y="1119"/>
			<point x="1505.1350097656" y="777" type="qcurve" smooth="yes"/>
			<point x="1505.1350097656" y="410"/>
			<point x="1057.8151245117" y="0"/>
			<point x="686.0102539062" y="0" type="qcurve" smooth="yes"/>
		</contour>
		<contour>
			<point x="469.0686645508" y="128.4870605469" type="line"/>
			<point x="500.2180786133" y="122.5193481445"/>
			<point x="648.4862060547" y="113.4870605469"/>
			<point x="721.4418945312" y="113.4870605469" type="qcurve" smooth="yes"/>
			<point x="980.0791625977" y="113.4870605469"/>
			<point x="1312.396484375" y="436.8391113281"/>
			<point x="1316.4323730469" y="761" type="qcurve" smooth="yes"/>
			<point x="1317.9413452148" y="1060.0385742188"/>
			<point x="972.3164672852" y="1377.1900634766"/>
			<point x="686.0820922852" y="1377.1900634766" type="qcurve" smooth="yes"/>
			<point x="638.1235961914" y="1377.1900634766"/>
			<point x="502.9631347656" y="1365.1577758789"/>
			<point x="469.0686645508" y="1360.1900634766" type="qcurve"/>
			<point x="466.952331543" y="754" type="line"/>
		</contour>
	</outline>
	<anchor name="bottom" x="686" y="0"/>
	<anchor name="center" x="438" y="754"/>
	<anchor name="top" x="686" y="1500"/>
	<anchor name="liga" x="1590" y="0"/>
</glyph>
<glyph name="F" format="2">
	<unicode hex="0046"/>
	<advance width="1174"/>
	<outline>
		<contour>
			<point x="82.01171875" y="0" type="line"/>
			<point x="82.01171875" y="99.9978027344" type="line"/>
			<point x="290.005859375" y="134.9978027344" type="line"/>
			<point x="292.005859375" y="754" type="line"/>
			<point x="290.005859375" y="1353.4425048828" type="line"/>
			<point x="82.01171875" y="1387.4425048828" type="line"/>
			<point x="82.01171875" y="1500" type="line"/>
			<point x="1114.7186889648" y="1500" type="line"/>
			<point x="1114.7186889648" y="1137.4541015625" type="line"/>
			<point x="1007.7186889648" y="1137.4541015625" type="line"/>
			<point x="982.7186889648" y="1378.4160766602" type="line"/>
			<point x="491.0686645508" y="1378.4160766602" type="line"/>
			<point x="470.0686645508" y="1358.4160766602" type="line"/>
			<point x="467.952331543" y="760" type="line"/>
			<point x="470.0686645508" y="133.9978027344" type="line"/>
			<point x="683.869934082" y="99.9978027344" type="line"/>
			<point x="683.869934082" y="0" type="line"/>
		</contour>
		<contour>
			<point x="402.0081787109" y="707.4501953125" type="line"/>
			<point x="402.0081787109" y="812.5175170898" type="line"/>
			<point x="819.0006103516" y="819.7435302734" type="line"/>
			<point x="844.0006103516" y="998.3033447266" type="line"/>
			<point x="954.0006103516" y="998.3033447266" type="line"/>
			<point x="954.0006103516" y="511.0905761719" type="line"/>
			<point x="844.0006103516" y="511.0905761719" type="line"/>
			<point x="819.0006103516" y="700.2241821289" type="line"/>
		</contour>
	</outline>
	<anchor name="bottom" x="578" y="0"/>
	<anchor name="top" x="622" y="1500"/>
</glyph>
<glyph name="H" format="2">
	<unicode hex="0048"/>
	<advance width="1740"/>
	<outline>
		<contour>
			<point x="82.01171875" y="0" type="line"/>
			<point x="82.01171875" y="99.9978027344" type="line"/>
			<point x="290.005859375" y="134.9978027344" type="line"/>
			<point x="292.1221923828" y="754" type="line"/>
			<point x="290.005859375" y="1353.4425048828" type="line"/>
			<point x="82.01171875" y="1387.4425048828" type="line"/>
			<point x="82.01171875" y="1500" type="line"/>
			<point x="668.0628051758" y="1500" type="line"/>
			<point x="668.0628051758" y="1387.4425048828" type="line"/>
			<point x="470.0686645508" y="1353.4425048828" type="line"/>
			<point x="467.952331543" y="754" type="line"/>
			<point x="470.0686645508" y="134.9978027344" type="line"/>
			<point x="668.0628051758" y="99.9978027344" type="line"/>
			<point x="668.0628051758" y="0" type="line"/>
		</contour>
		<contour>
			<point x="385.0081787109" y="715.9658813477" type="line"/>
			<point x="385.0081787109" y="848.0018310547" type="line"/>
			<point x="880.6130371094" y="839.7435302734" type="line"/>
			<point x="1363.5134277344" y="848.0018310547" type="line"/>
			<point x="1363.5134277344" y="715.9658813477" type="line"/>
			<point x="880.6130371094" y="715.9658813477" type="line"/>
		</contour>
		<contour>
			<point x="1071.5169677734" y="0" type="line"/>
			<point x="1071.5169677734" y="99.9978027344" type="line"/>
			<point x="1269.5111083984" y="134.9978027344" type="line"/>
			<point x="1271.6274414062" y="754" type="line"/>
			<point x="1269.5111083984" y="1353.4425048828" type="line"/>
			<point x="1071.5169677734" y="1387.4425048828" type="line"/>
			<point x="1071.5169677734" y="1500" type="line"/>
			<point x="1657.5680541992" y="1500" type="line"/>
			<point x="1657.5680541992" y="1387.4425048828" type="line"/>
			<point x="1449.5739135742" y="1353.4425048828" type="line"/>
			<point x="1447.4575805664" y="754" type="line"/>
			<point x="1449.5739135742" y="134.9978027344" type="line"/>
			<point x="1657.5680541992" y="99.9978027344" type="line"/>
			<point x="1657.5680541992" y="0" type="line"/>
		</contour>
	</outline>
	<anchor name="bottom" x="870" y="0"/>
	<anchor name="center" x="870" y="1079"/>
	<anchor name="top" x="870" y="1500"/>
	<anchor name="tonos" x="0" y="1500"/>
	<anchor name="cy_descender" x="1658" y="100"/>
</glyph>
<glyph name="J" format="2">
	<unicode hex="004A"/>
	<advance width="760"/>
	<outline>
		<contour>
			<point x="29.0963745117" y="-205.7590332031" type="qcurve"/>
			<point x="29.0963745117" y="-75.7617797852" type="line"/>
			<point x="59.3889770508" y="-76.4419555664"/>
			<point x="102.1328125" y="-73.9222412109"/>
			<point x="147.8155517578" y="-68.8023071289" type="qcurve" smooth="yes"/>
			<point x="236.6322631836" y="-58.5624389648"/>
			<point x="307.25390625" y="18"/>
			<point x="307.25390625" y="112" type="qcurve" smooth="yes"/>
			<point x="305.25390625" y="834" type="line"/>
			<point x="304.25390625" y="1353.4425048828" type="line"/>
			<point x="97.4615478516" y="1387.4425048828" type="line"/>
			<point x="97.4615478516" y="1500" type="line"/>
			<point x="685.8681030273" y="1500" type="line"/>
			<point x="670" y="1384" type="line"/>
			<point x="480" y="1350" type="line"/>
			<point x="480.0840454102" y="834" type="line"/>
			<point x="488.782043457" y="189" type="line" smooth="yes"/>
			<point x="492.0147094727" y="-29"/>
			<point x="332.205078125" y="-200.7595825195"/>
			<point x="174.7979125977" y="-207.7595825195" type="qcurve" smooth="yes"/>
			<point x="107.3261108398" y="-210.7595825195"/>
			<point x="52.3055419922" y="-207.3592529297"/>
		</contour>
	</outline>
	<anchor name="bottom" x="376" y="-208"/>
	<anchor name="top" x="376" y="1500"/>
	<anchor name="_liga" x="0" y="0"/>
</glyph>
<glyph name="L" format="2">
	<unicode hex="004C"/>
	<advance width="1260"/>
	<outline>
		<contour>
			<point x="82.01171875" y="0" type="line"/>
			<point x="82.01171875" y="99.9978027344" type="line"/>
			<point x="290.005859375" y="134.9978027344" type="line"/>
			<point x="292.005859375" y="754" type="line"/>
			<point x="290.005859375" y="1353.4425048828" type="line"/>
			<point x="82.01171875" y="1387.4425048828" type="line"/>
			<point x="82.01171875" y="1500" type="line"/>
			<point x="683.591003418" y="1500" type="line"/>
			<point x="683.591003418" y="1387.4425048828" type="line"/>
			<point x="470.0686645508" y="1353.4425048828" type="line"/>
			<point x="467.952331543" y="754" type="line"/>
			<point x="470.0686645508" y="134.2610473633" type="line"/>
			<point x="498.0686645508" y="111.2610473633" type="line"/>
			<point x="1053.5249633789" y="111.2610473633" type="line"/>
			<point x="1113.5249633789" y="420.0494995117" type="line"/>
			<point x="1238.5249633789" y="420.0494995117" type="line"/>
			<point x="1203.137512207" y="0" type="line"/>
		</contour>
	</outline>
	<anchor name="bottom" x="705" y="0"/>
	<anchor name="centerright" x="928" y="750"/>
	<anchor name="top" x="632" y="1500"/>
	<anchor name="topright" x="784" y="1001"/>
	<anchor name="center" x="378" y="750"/>
	<anchor name="liga" x="1264" y="0"/>
</glyph>
<glyph name="N" format="2">
	<unicode hex="004E"/>
	<advance width="1560"/>
	<outline>
		<contour>
			<point x="82.01171875" y="0" type="line"/>
			<point x="82.01171875" y="99.9978027344" type="line"/>
			<point x="278.005859375" y="133.9978027344" type="line"/>
			<point x="279.005859375" y="754" type="line"/>
			<point x="278.005859375" y="1353.4425048828" type="line"/>
			<point x="82.01171875" y="1387.4425048828" type="line"/>
			<point x="82.01171875" y="1500" type="line"/>
			<point x="471.618347168" y="1500" type="line"/>
			<point x="866.1528930664" y="874.3001098633" type="line"/>
			<point x="1148" y="412" type="line"/>
			<point x="1206" y="310" type="line"/>
			<point x="1215" y="313" type="line"/>
			<point x="1211" y="434" type="line"/>
			<point x="1195.4882202148" y="754" type="line"/>
			<point x="1193.3710327148" y="1353.4425048828" type="line"/>
			<point x="988.5697631836" y="1387.4425048828" type="line"/>
			<point x="988.5697631836" y="1500" type="line"/>
			<point x="1507.4647827148" y="1500" type="line"/>
			<point x="1507.4647827148" y="1387.4425048828" type="line"/>
			<point x="1312.4706420898" y="1353.4425048828" type="line"/>
			<point x="1310.4706420898" y="754" type="line"/>
			<point x="1307.4706420898" y="-4" type="line"/>
			<point x="1226.6545410156" y="-4" type="line"/>
			<point x="736.1268310547" y="754.1384887695" type="line"/>
			<point x="472" y="1219" type="line"/>
			<point x="414" y="1321" type="line"/>
			<point x="405" y="1318" type="line"/>
			<point x="410" y="1198" type="line"/>
			<point x="395.1700439453" y="754" type="line"/>
			<point x="397.1700439453" y="133.9978027344" type="line"/>
			<point x="591.5677490234" y="99.9978027344" type="line"/>
			<point x="591.5677490234" y="0" type="line"/>
		</contour>
	</outline>
	<anchor name="bottom" x="800" y="0"/>
	<anchor name="top" x="800" y="1500"/>
	<anchor name="engtail" x="1324" y="0"/>
	<anchor name="liga" x="1600" y="0"/>
</glyph>
<glyph name="Q" format="2">
	<unicode hex="0051"/>
	<advance width="1656"/>
	<outline>
		<contour>
			<point x="80.0009765625" y="743.5448608398" type="qcurve" smooth="yes"/>
			<point x="80.0009765625" y="1068.9820556641"/>
			<point x="509.3919677734" y="1520"/>
			<point x="827.1135864258" y="1520" type="qcurve" smooth="yes"/>
			<point x="1148.8342285156" y="1520"/>
			<point x="1576.0037231445" y="1099"/>
			<point x="1576.0037231445" y="756" type="qcurve" smooth="yes"/>
			<point x="1576.0037231445" y="429"/>
			<point x="1133.5059814453" y="-22"/>
			<point x="829.578918457" y="-22" type="qcurve" smooth="yes"/>
			<point x="503.2168579102" y="-22"/>
			<point x="80.0009765625" y="419.287109375"/>
		</contour>
		<contour>
			<point x="268.7617797852" y="772.4551391602" type="qcurve" smooth="yes"/>
			<point x="268.7617797852" y="479.5388793945"/>
			<point x="577.2947998047" y="112.7776489258"/>
			<point x="828.2299194336" y="112.7453613281" type="qcurve" smooth="yes"/>
			<point x="1097.0599975586" y="112.7130737305"/>
			<point x="1388.2429199219" y="440.0225830078"/>
			<point x="1388.2429199219" y="749" type="qcurve" smooth="yes"/>
			<point x="1388.2429199219" y="1024.8143310547"/>
			<point x="1085.2833862305" y="1376.7057495117"/>
			<point x="830.7166137695" y="1376.7057495117" type="qcurve" smooth="yes"/>
			<point x="559.7109985352" y="1376.7057495117"/>
			<point x="268.7617797852" y="1055.3102416992"/>
		</contour>
		<contour>
			<point x="573" y="-39" type="qcurve"/>
			<point x="1290" y="-274" type="line"/>
			<point x="1350" y="-274"/>
			<point x="1442" y="-186"/>
			<point x="1475" y="-132" type="qcurve"/>
			<point x="1565" y="-184" type="line"/>
			<point x="1515" y="-288"/>
			<point x="1371" y="-429"/>
			<point x="1239" y="-429" type="qcurve"/>
			<point x="540" y="-194" type="line"/>
			<point x="479" y="-194"/>
			<point x="363" y="-236"/>
			<point x="306" y="-288" type="qcurve"/>
			<point x="238" y="-224" type="line"/>
			<point x="299" y="-132"/>
			<point x="476" y="-39"/>
		</contour>
		<contour>
			<point x="555.2322998047" y="-39.369934082" type="line"/>
			<point x="710.8874511719" y="283.9723510742" type="line"/>
			<point x="788.1090087891" y="217.3865356445" type="line"/>
			<point x="648.4072265625" y="-82.6723022461" type="line"/>
		</contour>
	</outline>
	<anchor name="bottom" x="832" y="0"/>
	<anchor name="top" x="823" y="1502"/>
</glyph>
<glyph name="R" format="2">
	<unicode hex="0052"/>
	<advance width="1401"/>
	<outline>
		<contour>
			<point x="82.4365234375" y="0" type="line"/>
			<point x="82.4365234375" y="98.9978027344" type="line"/>
			<point x="290.4306640625" y="133.9978027344" type="line"/>
			<point x="292.4306640625" y="754" type="line"/>
			<point x="290.4306640625" y="1353.4425048828" type="line"/>
			<point x="82.4365234375" y="1387.4425048828" type="line"/>
			<point x="82.4365234375" y="1500" type="line"/>
			<point x="748.4529418945" y="1500" type="line" smooth="yes"/>
			<point x="944.8148193359" y="1499"/>
			<point x="1145.5891723633" y="1309"/>
			<point x="1145.5891723633" y="1143" type="qcurve" smooth="yes"/>
			<point x="1145.5891723633" y="966"/>
			<point x="910.8308105469" y="734.3542480469"/>
			<point x="695.1121826172" y="734.3542480469" type="qcurve" smooth="yes"/>
			<point x="628.5191650391" y="734.3542480469"/>
			<point x="427.8249511719" y="739.4833984375"/>
			<point x="366.7065429688" y="744.6125488281" type="qcurve"/>
			<point x="366.7065429688" y="847.2278442383" type="line"/>
			<point x="644.2438354492" y="847.2278442383" type="line" smooth="yes"/>
			<point x="823.071105957" y="847.2278442383"/>
			<point x="952.4793701172" y="1004.2457275391"/>
			<point x="952.4793701172" y="1137" type="qcurve" smooth="yes"/>
			<point x="952.4793701172" y="1253.6727294922"/>
			<point x="840.7022705078" y="1378.4160766602"/>
			<point x="688.8577270508" y="1378.4160766602" type="qcurve" smooth="yes"/>
			<point x="490.2608032227" y="1378.4160766602" type="line"/>
			<point x="470.2608032227" y="1360.4160766602" type="line"/>
			<point x="467.2608032227" y="794" type="line"/>
			<point x="469.2608032227" y="133.9978027344" type="line"/>
			<point x="680.1777954102" y="99.9978027344" type="line"/>
			<point x="680.1777954102" y="0" type="line"/>
		</contour>
		<contour>
			<point x="633.3790283203" y="784.7103271484" type="line"/>
			<point x="820.6537475586" y="824.4987792969" type="line"/>
			<point x="1144.7650146484" y="315" type="line" smooth="yes"/>
			<point x="1243.1973876953" y="166.8069458008"/>
			<point x="1352.719909668" y="93.741027832"/>
			<point x="1405.473449707" y="103.9978027344" type="qcurve"/>
			<point x="1405.473449707" y="0" type="line"/>
			<point x="1155.6851196289" y="0" type="line"/>
			<point x="1132.6312866211" y="20" type="line"/>
		</contour>
	</outline>
	<anchor name="bottom" x="803" y="0"/>
	<anchor name="top" x="630" y="1500"/>
</glyph>
<glyph name="U" format="2">
	<unicode hex="0055"/>
	<advance width="1621"/>
	<outline>
		<contour>
			<point x="80.6711425781" y="1387.4425048828" type="line"/>
			<point x="80.6711425781" y="1500" type="line"/>
			<point x="632.729309082" y="1500" type="line"/>
			<point x="632.729309082" y="1387.4425048828" type="line"/>
			<point x="447.9755249023" y="1353.4425048828" type="line"/>
			<point x="444.9755249023" y="794" type="line"/>
			<point x="448.3826904297" y="456.163269043" type="line" smooth="yes"/>
			<point x="450.6153564453" y="264.163269043"/>
			<point x="668.2397460938" y="126.8422241211"/>
			<point x="851.9792480469" y="126.8422241211" type="qcurve" smooth="yes"/>
			<point x="1013.9288330078" y="126.8422241211"/>
			<point x="1238.6205444336" y="279.0018310547"/>
			<point x="1242.5946655273" y="476.0018310547" type="qcurve" smooth="yes"/>
			<point x="1248.6592407227" y="794" type="line"/>
			<point x="1241.1215820312" y="1353.4425048828" type="line"/>
			<point x="1053.7238769531" y="1387.4425048828" type="line"/>
			<point x="1053.7238769531" y="1500" type="line"/>
			<point x="1538.2162475586" y="1500" type="line"/>
			<point x="1538.2162475586" y="1387.4425048828" type="line"/>
			<point x="1376.2221069336" y="1353.4425048828" type="line"/>
			<point x="1374.0993652344" y="794" type="line"/>
			<point x="1377.7274780273" y="473" type="line" smooth="yes"/>
			<point x="1380.8645629883" y="213"/>
			<point x="1072.9310913086" y="-22"/>
			<point x="834.6468505859" y="-22" type="qcurve" smooth="yes"/>
			<point x="577.7138061523" y="-22"/>
			<point x="266.2035522461" y="201"/>
			<point x="267.26171875" y="461" type="qcurve" smooth="yes"/>
			<point x="268.26171875" y="794" type="line"/>
			<point x="267.26171875" y="1353.4425048828" type="line"/>
		</contour>
	</outline>
	<anchor name="bottom" x="832" y="0"/>
	<anchor name="ogonek" x="1042" y="0"/>
	<anchor name="top" x="832" y="1500"/>
	<anchor name="topright" x="1590" y="1500"/>
</glyph>
<glyph name="V" format="2">
	<unicode hex="0056"/>
	<advance width="1423"/>
	<outline>
		<contour>
			<point x="-23.2733764648" y="1388.4425048828" type="line"/>
			<point x="-23.2733764648" y="1500" type="line"/>
			<point x="497.6807250977" y="1500" type="line"/>
			<point x="497.6807250977" y="1388.4425048828" type="line"/>
			<point x="324.3008422852" y="1353.4425048828" type="line"/>
			<point x="525.2274780273" y="816.8682250977" type="line"/>
			<point x="697.0892333984" y="333.8242797852" type="line"/>
			<point x="729.6547851562" y="237.5308837891" type="line"/>
			<point x="739.6547851562" y="237.5308837891" type="line"/>
			<point x="774.9868164062" y="333.8824462891" type="line"/>
			<point x="952.3262329102" y="843.9219360352" type="line"/>
			<point x="1146.4936523438" y="1353.9771728516" type="line"/>
			<point x="942.5469970703" y="1387.9771728516" type="line"/>
			<point x="942.5469970703" y="1499.5346679688" type="line"/>
			<point x="1451.9854125977" y="1500" type="line"/>
			<point x="1451.9854125977" y="1388.4425048828" type="line"/>
			<point x="1278.201965332" y="1353.4425048828" type="line"/>
			<point x="1054.6669921875" y="772.5441894531" type="line"/>
			<point x="756.8371582031" y="-8" type="line"/>
			<point x="652.3605957031" y="-8" type="line"/>
			<point x="362.3413085938" y="755.9702758789" type="line"/>
			<point x="138.1065063477" y="1353.4425048828" type="line"/>
		</contour>
	</outline>
	<anchor name="bottom" x="723" y="0"/>
	<anchor name="top" x="733" y="1500"/>
</glyph>
<glyph name="W" format="2">
	<unicode hex="0057"/>
	<advance width="2048"/>
	<outline>
		<contour>
			<point x="617.0671386719" y="-8" type="line"/>
			<point x="349.2185668945" y="746.2974243164" type="line"/>
			<point x="135.1065063477" y="1352.4425048828" type="line"/>
			<point x="-23.2733764648" y="1388.4425048828" type="line"/>
			<point x="-23.2733764648" y="1500" type="line"/>
			<point x="475.2596435547" y="1500" type="line"/>
			<point x="475.2596435547" y="1388.4425048828" type="line"/>
			<point x="323.0726318359" y="1353.4425048828" type="line"/>
			<point x="508.5876464844" y="800.0339355469" type="line"/>
			<point x="661.8375244141" y="320.6546630859" type="line"/>
			<point x="688.9466552734" y="245.9521484375" type="line"/>
			<point x="698.9466552734" y="245.9521484375" type="line"/>
			<point x="731.1033325195" y="320.3618774414" type="line"/>
			<point x="847.7520751953" y="651.4629516602" type="line"/>
			<point x="976.8121948242" y="976.1459960938" type="line"/>
			<point x="868.7162475586" y="1352.7623291016" type="line"/>
			<point x="711.3363647461" y="1387.7623291016" type="line"/>
			<point x="711.3363647461" y="1500" type="line"/>
			<point x="1225.9528808594" y="1500" type="line"/>
			<point x="1225.9528808594" y="1387.7623291016" type="line"/>
			<point x="1068.5729980469" y="1353.7623291016" type="line"/>
			<point x="1235.7641601562" y="820.6519165039" type="line"/>
			<point x="1370.4801025391" y="320.4932250977" type="line"/>
			<point x="1393.2791748047" y="249.7584228516" type="line"/>
			<point x="1403.2791748047" y="249.7584228516" type="line"/>
			<point x="1430.0147705078" y="320.1422729492" type="line"/>
			<point x="1629" y="803" type="line"/>
			<point x="1785.7915039062" y="1353.4425048828" type="line"/>
			<point x="1605.4412841797" y="1387.4425048828" type="line"/>
			<point x="1605.4412841797" y="1500" type="line"/>
			<point x="2077.9084472656" y="1500" type="line"/>
			<point x="2077.9084472656" y="1387.4425048828" type="line"/>
			<point x="1910.7214355469" y="1353.4425048828" type="line"/>
			<point x="1747" y="760" type="line"/>
			<point x="1416.0739135742" y="-8" type="line"/>
			<point x="1309.4595947266" y="-8" type="line"/>
			<point x="1081.2912597656" y="637.1520996094" type="line"/>
			<point x="1033.8754272461" y="819.9450683594" type="line"/>
			<point x="1023.8754272461" y="819.9450683594" type="line"/>
			<point x="965.8990478516" y="630.0616455078" type="line"/>
			<point x="722.9917602539" y="-8" type="line"/>
		</contour>
	</outline>
	<anchor name="bottom" x="1051" y="0"/>
	<anchor name="top" x="1051" y="1500"/>
</glyph>
<glyph name="X" format="2">
	<unicode hex="0058"/>
	<advance width="1314"/>
	<outline>
		<contour>
			<point x="-23.3012084961" y="0" type="line"/>
			<point x="-25.3012084961" y="100.9978027344" type="line"/>
			<point x="141.0786743164" y="135.9978027344" type="line"/>
			<point x="575" y="786" type="line"/>
			<point x="187.2053833008" y="1353.4425048828" type="line"/>
			<point x="23.2290649414" y="1387.4425048828" type="line"/>
			<point x="23.2290649414" y="1500" type="line"/>
			<point x="525.9550170898" y="1500" type="line"/>
			<point x="525.9550170898" y="1387.4425048828" type="line"/>
			<point x="381.3733520508" y="1352.4425048828" type="line"/>
			<point x="601" y="1043" type="line"/>
			<point x="673" y="929" type="line"/>
			<point x="683" y="929" type="line"/>
			<point x="751" y="1043" type="line"/>
			<point x="932.4305419922" y="1357.4425048828" type="line"/>
			<point x="767.8874511719" y="1387.4425048828" type="line"/>
			<point x="767.8874511719" y="1500" type="line"/>
			<point x="1252.7342529297" y="1500" type="line"/>
			<point x="1252.7342529297" y="1387.4425048828" type="line"/>
			<point x="1076.9508056641" y="1353.4425048828" type="line"/>
			<point x="753" y="818" type="line"/>
			<point x="1176.8205566406" y="134.9978027344" type="line"/>
			<point x="1352.2004394531" y="100.9978027344" type="line"/>
			<point x="1352.2004394531" y="0" type="line"/>
			<point x="823.9545898438" y="0" type="line"/>
			<point x="823.9545898438" y="100.9978027344" type="line"/>
			<point x="983.5362548828" y="134.9978027344" type="line"/>
			<point x="727" y="562" type="line"/>
			<point x="655" y="676" type="line"/>
			<point x="645" y="676" type="line"/>
			<point x="577" y="562" type="line"/>
			<point x="286.5989379883" y="131.9978027344" type="line"/>
			<point x="436.1420288086" y="100.9978027344" type="line"/>
			<point x="436.1420288086" y="0" type="line"/>
		</contour>
	</outline>
	<anchor name="bottom" x="661" y="0"/>
	<anchor name="top" x="673" y="1500"/>
	<anchor name="cy_descender" x="1386" y="100"/>
	<anchor name="center" x="663" y="811"/>
</glyph>
<glyph name="Y" format="2">
	<unicode hex="0059"/>
	<advance width="1240"/>
	<outline>
		<contour>
			<point x="318.5143432617" y="0" type="line"/>
			<point x="318.5143432617" y="99.9978027344" type="line"/>
			<point x="538.3927612305" y="134.9978027344" type="line"/>
			<point x="540.5090942383" y="647.3489990234" type="line"/>
			<point x="349.1007080078" y="956.3051147461" type="line"/>
			<point x="119.4468994141" y="1353.4425048828" type="line"/>
			<point x="-31.0101318359" y="1387.4425048828" type="line"/>
			<point x="-31.0101318359" y="1500" type="line"/>
			<point x="458.1815795898" y="1500" type="line"/>
			<point x="458.1815795898" y="1387.4425048828" type="line"/>
			<point x="332.4456176758" y="1353.4425048828" type="line"/>
			<point x="492.2747802734" y="1059.6480712891" type="line"/>
			<point x="659" y="783" type="line"/>
			<point x="669" y="783" type="line"/>
			<point x="822.1480102539" y="1088.6683959961" type="line"/>
			<point x="964.8487548828" y="1353.4425048828" type="line"/>
			<point x="782.9020996094" y="1387.4425048828" type="line"/>
			<point x="782.9020996094" y="1500" type="line"/>
			<point x="1273.1202392578" y="1500" type="line"/>
			<point x="1273.1202392578" y="1387.4425048828" type="line"/>
			<point x="1114.7403564453" y="1353.4425048828" type="line"/>
			<point x="921.1934814453" y="1009.7983398438" type="line"/>
			<point x="716.3133544922" y="656.9005126953" type="line"/>
			<point x="718.3973999023" y="134.9978027344" type="line"/>
			<point x="938.7951049805" y="99.9978027344" type="line"/>
			<point x="938.7951049805" y="0" type="line"/>
		</contour>
	</outline>
	<anchor name="bottom" x="636" y="0"/>
	<anchor name="top" x="640" y="1500"/>
	<anchor name="tonos" x="-100" y="1500"/>
	<anchor name="center" x="636" y="582"/>
</glyph>
<glyph name="Z" format="2">
	<unicode hex="005A"/>
	<advance width="1151"/>
	<outline>
		<contour>
			<point x="48.4995727539" y="0" type="line"/>
			<point x="23.7569580078" y="94.2601318359" type="line"/>
			<point x="874.8109741211" y="1370.4160766602" type="line"/>
			<point x="867.8109741211" y="1378.4160766602" type="line"/>
			<point x="229.6047363281" y="1378.4160766602" type="line"/>
			<point x="194.8103027344" y="1078.3630371094" type="line"/>
			<point x="84.9921875" y="1078.3630371094" type="line"/>
			<point x="84.9921875" y="1500" type="line"/>
			<point x="1093.0353393555" y="1500" type="line"/>
			<point x="1093.0353393555" y="1406.5138549805" type="line"/>
			<point x="237.624206543" y="117.2610473633" type="line"/>
			<point x="244.624206543" y="111.2610473633" type="line"/>
			<point x="945.478515625" y="111.2610473633" type="line"/>
			<point x="1046.1483764648" y="404.3641357422" type="line"/>
			<point x="1149.2998046875" y="404.3641357422" type="line"/>
			<point x="1091.542175293" y="0" type="line"/>
		</contour>
	</outline>
	<anchor name="bottom" x="583" y="0"/>
	<anchor name="top" x="583" y="1500"/>
	<anchor name="_liga" x="0" y="0"/>
</glyph>
<glyph name="a" format="2">
	<unicode hex="0061"/>
	<advance width="1118"/>
	<outline>
		<contour>
			<point x="100.65234375" y="236.8210449219" type="qcurve" smooth="yes"/>
			<point x="100.65234375" y="383.7315673828"/>
			<point x="433.4659423828" y="586.0541992188"/>
			<point x="808.7173461914" y="629.4644775391" type="qcurve"/>
			<point x="814.7173461914" y="542.768737793" type="line"/>
			<point x="539.6517333984" y="509.0991821289"/>
			<point x="279.0361328125" y="360.5186157227"/>
			<point x="279.0361328125" y="270.3192749023" type="qcurve" smooth="yes"/>
			<point x="279.0361328125" y="183.3823852539"/>
			<point x="373.0710449219" y="117.239074707"/>
			<point x="453.4094238281" y="117.239074707" type="qcurve" smooth="yes"/>
			<point x="531.7875976562" y="117.239074707"/>
			<point x="690.8545532227" y="190.205078125"/>
			<point x="730.0132446289" y="243.0745239258" type="qcurve"/>
			<point x="730.1860961914" y="669.3988647461" type="line" smooth="yes"/>
			<point x="730.2725219727" y="810.1171875"/>
			<point x="611.1685180664" y="910.5041503906"/>
			<point x="510.9488525391" y="910.5041503906" type="qcurve" smooth="yes"/>
			<point x="427.4025878906" y="910.5041503906"/>
			<point x="319.8533935547" y="873.5029296875"/>
			<point x="297.9113769531" y="841.21875" type="qcurve"/>
			<point x="303.1094970703" y="824.0823974609"/>
			<point x="343.5184326172" y="778.7730712891"/>
			<point x="345.5353393555" y="737.9088134766" type="qcurve" smooth="yes"/>
			<point x="350.2846069336" y="696.4024658203"/>
			<point x="298.844909668" y="648.5997314453"/>
			<point x="259.733581543" y="648.5997314453" type="qcurve" smooth="yes"/>
			<point x="221.1901245117" y="648.5997314453"/>
			<point x="159.3986206055" y="721.3160400391"/>
			<point x="159.3986206055" y="798.4644775391" type="qcurve" smooth="yes"/>
			<point x="159.3986206055" y="905.9830322266"/>
			<point x="376.8851318359" y="1025.3165283203"/>
			<point x="539.4234008789" y="1025.3165283203" type="qcurve" smooth="yes"/>
			<point x="708.7647094727" y="1025.3165283203"/>
			<point x="899.7549438477" y="863.4769897461"/>
			<point x="899.7549438477" y="688.2024536133" type="qcurve" smooth="yes"/>
			<point x="899.7549438477" y="115" type="line"/>
			<point x="1056.3790893555" y="80" type="line"/>
			<point x="1056.3790893555" y="0" type="line"/>
			<point x="783.9766235352" y="0" type="line"/>
			<point x="744.5689086914" y="52.7163085938" type="line"/>
			<point x="727.139465332" y="129.9994506836" type="line"/>
			<point x="685.2744750977" y="66.1182250977"/>
			<point x="488.9815063477" y="-13"/>
			<point x="373.4730834961" y="-13" type="qcurve" smooth="yes"/>
			<point x="252.8642578125" y="-13"/>
			<point x="100.65234375" y="117.2893676758"/>
		</contour>
	</outline>
	<anchor name="bottom" x="548" y="0"/>
	<anchor name="ogonek" x="878" y="0"/>
	<anchor name="top" x="514" y="1000"/>
</glyph>
<glyph name="d" format="2">
	<unicode hex="0064"/>
	<advance width="1213"/>
	<outline>
		<contour>
			<point x="66.6243896484" y="481.7114257812" type="qcurve" smooth="yes"/>
			<point x="66.6243896484" y="714.4931640625"/>
			<point x="342.1299438477" y="1022.3165283203"/>
			<point x="583.1939086914" y="1022.3165283203" type="qcurve" smooth="yes"/>
			<point x="659.8840942383" y="1022.3165283203"/>
			<point x="797.2053833008" y="993.7407836914"/>
			<point x="847.5827636719" y="964.7968139648" type="qcurve"/>
			<point x="838.3474121094" y="1372" type="line"/>
			<point x="667.1824951172" y="1406" type="line"/>
			<point x="667.1824951172" y="1500" type="line"/>
			<point x="955.4266357422" y="1534" type="line"/>
			<point x="988.7230224609" y="1534" type="line"/>
			<point x="1018.9700927734" y="1502" type="line"/>
			<point x="1016.5379638672" y="538.0924682617" type="line"/>
			<point x="1022.3157958984" y="115" type="line"/>
			<point x="1175.642578125" y="80" type="line"/>
			<point x="1175.642578125" y="0" type="line"/>
			<point x="917.50390625" y="0" type="line"/>
			<point x="871.0992431641" y="49" type="line"/>
			<point x="850.1056518555" y="93.9594726562" type="line"/>
			<point x="807.5623168945" y="60.5441894531"/>
			<point x="647.1730957031" y="-9"/>
			<point x="529.8309936523" y="-9" type="qcurve" smooth="yes"/>
			<point x="316.0639648438" y="-9"/>
			<point x="66.6243896484" y="255.6429443359"/>
		</contour>
		<contour>
			<point x="252.9217529297" y="506.1582641602" type="qcurve" smooth="yes"/>
			<point x="252.9217529297" y="332.1763305664"/>
			<point x="409.8139648438" y="119.0158081055"/>
			<point x="565.3442382812" y="118.9973144531" type="qcurve" smooth="yes"/>
			<point x="661.9653930664" y="118.9788208008"/>
			<point x="802.4758911133" y="169.4275512695"/>
			<point x="852.1419677734" y="199.861328125" type="qcurve"/>
			<point x="856.1333007812" y="527.2382202148" type="line"/>
			<point x="855.1333007812" y="818.1157836914" type="line"/>
			<point x="823.0569458008" y="861.9934082031"/>
			<point x="674.9793701172" y="916.4856567383"/>
			<point x="587.791809082" y="916.4856567383" type="qcurve" smooth="yes"/>
			<point x="433.614440918" y="916.4856567383"/>
			<point x="252.9217529297" y="670.5718383789"/>
		</contour>
	</outline>
	<anchor name="bottom" x="604" y="0"/>
	<anchor name="center" x="876" y="1202"/>
	<anchor name="top" x="604" y="1534"/>
	<anchor name="topright" x="961" y="1000"/>
	<anchor name="liga" x="1207" y="0"/>
</glyph>
<glyph name="e" format="2">
	<unicode hex="0065"/>
	<advance width="1022"/>
	<outline>
		<contour>
			<point x="63.846496582" y="501.0699462891" type="qcurve" smooth="yes"/>
			<point x="63.846496582" y="736.9978027344"/>
			<point x="325.6556396484" y="1024.9167480469"/>
			<point x="541.0225830078" y="1024.9167480469" type="qcurve" smooth="yes"/>
			<point x="738.5581054688" y="1024.9167480469"/>
			<point x="955.1919555664" y="797.7973632812"/>
			<point x="973.6278076172" y="591.6755371094" type="qcurve"/>
			<point x="973.6278076172" y="530.9357910156" type="line"/>
			<point x="189.4026489258" y="530.9357910156" type="line"/>
			<point x="188.8840942383" y="628.248840332" type="line"/>
			<point x="811.4539794922" y="628.248840332" type="line"/>
			<point x="793.4568481445" y="761.9340820312"/>
			<point x="644.0866699219" y="908.9934082031"/>
			<point x="532.3802490234" y="908.9934082031" type="qcurve" smooth="yes"/>
			<point x="395.2619628906" y="908.9934082031"/>
			<point x="243.8660888672" y="695.6428222656"/>
			<point x="244.8845825195" y="522.7984619141" type="qcurve" smooth="yes"/>
			<point x="244.9030761719" y="328.1209106445"/>
			<point x="439.469909668" y="108.4979858398"/>
			<point x="597.9411010742" y="108.4979858398" type="qcurve" smooth="yes"/>
			<point x="704.626953125" y="108.4979858398"/>
			<point x="843.3043212891" y="156.7767333984"/>
			<point x="891.186706543" y="193.2404174805" type="qcurve"/>
			<point x="942.9819335938" y="155.2972412109" type="line"/>
			<point x="894.2310791016" y="84.6301269531"/>
			<point x="708.8732299805" y="-17"/>
			<point x="574.6678466797" y="-17" type="qcurve" smooth="yes"/>
			<point x="337.1298828125" y="-17"/>
			<point x="63.846496582" y="249.2163085938"/>
		</contour>
	</outline>
	<anchor name="bottom" x="578" y="0"/>
	<anchor name="ogonek" x="744" y="0"/>
	<anchor name="top" x="539" y="1000"/>
</glyph>
<glyph name="f" format="2">
	<unicode hex="0066"/>
	<advance width="711"/>
	<outline>
		<contour>
			<point x="93.6965332031" y="0" type="line"/>
			<point x="93.6965332031" y="80" type="line"/>
			<point x="266.1857910156" y="115" type="line"/>
			<point x="268.1857910156" y="527" type="line"/>
			<point x="265.1857910156" y="871.964050293" type="line"/>
			<point x="107.5190429688" y="876.964050293" type="line"/>
			<point x="107.5190429688" y="971.6839599609" type="line"/>
			<point x="267.1857910156" y="989.6839599609" type="line"/>
			<point x="269.1857910156" y="1284" type="line" smooth="yes"/>
			<point x="270.0993652344" y="1389.197265625"/>
			<point x="402.1513671875" y="1518"/>
			<point x="509.1909179688" y="1518" type="qcurve" smooth="yes"/>
			<point x="551.01953125" y="1518"/>
			<point x="614.9536132812" y="1509.0864257812"/>
			<point x="650.2456054688" y="1498" type="qcurve" smooth="yes"/>
			<point x="669.3916015625" y="1492" type="line"/>
			<point x="653.4096679688" y="1388.2238769531" type="line"/>
			<point x="630.33203125" y="1392" type="line" smooth="yes"/>
			<point x="618.6293945312" y="1394.0864257812"/>
			<point x="592.822265625" y="1397"/>
			<point x="569.4057617188" y="1397" type="qcurve" smooth="yes"/>
			<point x="498.4458007812" y="1397"/>
			<point x="433.4089355469" y="1310.1340332031"/>
			<point x="433.4953613281" y="1226.1755371094" type="qcurve" smooth="yes"/>
			<point x="433.7546386719" y="990.6839599609" type="line"/>
			<point x="646.7348632812" y="990.6839599609" type="line"/>
			<point x="646.7348632812" y="877.964050293" type="line"/>
			<point x="433.7546386719" y="877.964050293" type="line"/>
			<point x="435.7546386719" y="527" type="line"/>
			<point x="442.7546386719" y="115" type="line"/>
			<point x="629.3793945312" y="80" type="line"/>
			<point x="629.3793945312" y="0" type="line"/>
		</contour>
	</outline>
	<anchor name="bottom" x="314" y="0"/>
	<anchor name="top" x="314" y="1536"/>
</glyph>
<glyph name="g" format="2">
	<unicode hex="0067"/>
	<advance width="997"/>
	<outline>
		<contour>
			<point x="12.0924072266" y="-255.5526123047" type="qcurve" smooth="yes"/>
			<point x="12.0924072266" y="-170.4483032227"/>
			<point x="126" y="-51"/>
			<point x="233" y="2" type="qcurve"/>
			<point x="340" y="-21" type="line"/>
			<point x="240" y="-84"/>
			<point x="152.3770751953" y="-192.8963623047"/>
			<point x="152.3770751953" y="-238.1998901367" type="qcurve" smooth="yes"/>
			<point x="152.3770751953" y="-320.2654418945"/>
			<point x="305.6838989258" y="-411.4095458984"/>
			<point x="527.0670166016" y="-411.4095458984" type="qcurve" smooth="yes"/>
			<point x="688.3668212891" y="-411.4095458984"/>
			<point x="896.8369140625" y="-315.6002197266"/>
			<point x="896.8369140625" y="-238.6002197266" type="qcurve" smooth="yes"/>
			<point x="896.8369140625" y="-165.2004394531"/>
			<point x="703.3895874023" y="-118.1569824219"/>
			<point x="516.081237793" y="-114.255859375" type="qcurve" smooth="yes"/>
			<point x="290.5056762695" y="-109.6676025391"/>
			<point x="76.1012573242" y="-0.8059082031"/>
			<point x="76.1012573242" y="120.380065918" type="qcurve" smooth="yes"/>
			<point x="76.1012573242" y="185.6254272461"/>
			<point x="214.5443115234" y="301.3010253906"/>
			<point x="301.3919067383" y="348.1457519531" type="qcurve"/>
			<point x="349.1965332031" y="280.2085571289" type="line"/>
			<point x="283.2103881836" y="247.2352905273"/>
			<point x="204.4474487305" y="193.162109375"/>
			<point x="204.4474487305" y="151.3248291016" type="qcurve" smooth="yes"/>
			<point x="204.4474487305" y="94.153503418"/>
			<point x="349.0347900391" y="56.9948730469"/>
			<point x="548.7198486328" y="56.2758789062" type="qcurve" smooth="yes"/>
			<point x="823.1268920898" y="55.0631713867"/>
			<point x="1029.7509765625" y="-50.5854492188"/>
			<point x="1029.7509765625" y="-175.4393920898" type="qcurve" smooth="yes"/>
			<point x="1029.7509765625" y="-318.8345947266"/>
			<point x="779.8717651367" y="-518"/>
			<point x="496.8597412109" y="-518" type="qcurve" smooth="yes"/>
			<point x="234.9723510742" y="-518"/>
			<point x="12.0924072266" y="-370.2592773438"/>
		</contour>
		<contour>
			<point x="76.91796875" y="637.5698852539" type="qcurve" smooth="yes"/>
			<point x="76.91796875" y="799.2047729492"/>
			<point x="296.5919799805" y="1024.9167480469"/>
			<point x="482.8801269531" y="1024.9167480469" type="qcurve" smooth="yes"/>
			<point x="669.908996582" y="1024.9167480469"/>
			<point x="890.5939331055" y="815.2047729492"/>
			<point x="890.5939331055" y="643.3012695312" type="qcurve" smooth="yes"/>
			<point x="890.5939331055" y="495.3948974609"/>
			<point x="678.4486083984" y="250.3978271484"/>
			<point x="490.1045532227" y="250.3978271484" type="qcurve" smooth="yes"/>
			<point x="304.5527954102" y="250.3978271484"/>
			<point x="76.91796875" y="476.4813232422"/>
		</contour>
		<contour>
			<point x="244.6967773438" y="647.7968139648" type="qcurve" smooth="yes"/>
			<point x="244.6967773438" y="520.9034423828"/>
			<point x="373.4227905273" y="354.1547241211"/>
			<point x="489.246887207" y="354.1547241211" type="qcurve" smooth="yes"/>
			<point x="595.8356323242" y="354.1547241211"/>
			<point x="721.6422729492" y="507.9034423828"/>
			<point x="721.6422729492" y="636.7968139648" type="qcurve" smooth="yes"/>
			<point x="721.6422729492" y="749.6901855469"/>
			<point x="595.0738525391" y="908.9379272461"/>
			<point x="479.2497558594" y="908.9379272461" type="qcurve" smooth="yes"/>
			<point x="373.1904296875" y="908.9379272461"/>
			<point x="244.6967773438" y="765.6901855469"/>
		</contour>
		<contour>
			<point x="540" y="925" type="line"/>
			<point x="540" y="1000" type="line"/>
			<point x="1012.94921875" y="1005.9167480469" type="line"/>
			<point x="1012.94921875" y="869.4557495117" type="line"/>
		</contour>
	</outline>
	<anchor name="bottom" x="524" y="-416"/>
	<anchor name="top" x="484" y="1000"/>
</glyph>
<glyph name="h" format="2">
	<unicode hex="0068"/>
	<advance width="1246"/>
	<outline>
		<contour>
			<point x="68.7888183594" y="0" type="line"/>
			<point x="68.7888183594" y="80" type="line"/>
			<point x="214.8452148438" y="115" type="line"/>
			<point x="216.8452148438" y="533.3565063477" type="line"/>
			<point x="214.8452148438" y="1372" type="line"/>
			<point x="97.8452148438" y="1406" type="line"/>
			<point x="97.8452148438" y="1500" type="line"/>
			<point x="326.759765625" y="1534" type="line"/>
			<point x="358.759765625" y="1534" type="line"/>
			<point x="386.759765625" y="1502" type="line"/>
			<point x="384.759765625" y="861.3946533203" type="line"/>
			<point x="433.1486816406" y="923.548828125"/>
			<point x="617.1735229492" y="1021.9967041016"/>
			<point x="732.3557128906" y="1021.9967041016" type="qcurve" smooth="yes"/>
			<point x="888.6364746094" y="1021.9967041016"/>
			<point x="1039.7100830078" y="884.7310180664"/>
			<point x="1039.7100830078" y="766.9967041016" type="qcurve" smooth="yes"/>
			<point x="1039.7100830078" y="706.6088867188"/>
			<point x="1036.7100830078" y="587.9487915039"/>
			<point x="1036.7100830078" y="568.3565063477" type="qcurve" smooth="yes"/>
			<point x="1039.7100830078" y="115" type="line"/>
			<point x="1190.7125244141" y="80" type="line"/>
			<point x="1190.7125244141" y="0" type="line"/>
			<point x="735.8089599609" y="0" type="line"/>
			<point x="735.8089599609" y="80" type="line"/>
			<point x="867.0548095703" y="115" type="line"/>
			<point x="867.0548095703" y="568.3565063477" type="line"/>
			<point x="867.0548095703" y="723.9611816406" type="line" smooth="yes"/>
			<point x="867.0548095703" y="799.2821655273"/>
			<point x="766.1532592773" y="874.9124755859"/>
			<point x="674.8630981445" y="874.9124755859" type="qcurve" smooth="yes"/>
			<point x="592.78125" y="874.9124755859"/>
			<point x="436.061340332" y="800.3497924805"/>
			<point x="385.759765625" y="708.4240722656" type="qcurve"/>
			<point x="385.759765625" y="568.3165283203" type="line"/>
			<point x="385.759765625" y="115" type="line"/>
			<point x="499.5187988281" y="80" type="line"/>
			<point x="499.5187988281" y="0" type="line"/>
		</contour>
	</outline>
	<anchor name="bottom" x="629" y="0"/>
	<anchor name="center" x="347" y="1202"/>
	<anchor name="top" x="304" y="1534"/>
</glyph>
<glyph name="k" format="2">
	<unicode hex="006B"/>
	<advance width="1151"/>
	<outline>
		<contour>
			<point x="75.5539550781" y="0" type="line"/>
			<point x="75.5539550781" y="80" type="line"/>
			<point x="221.6103515625" y="115" type="line"/>
			<point x="223.783203125" y="527" type="line"/>
			<point x="221.6103515625" y="1372" type="line"/>
			<point x="50.7697753906" y="1406" type="line"/>
			<point x="50.7697753906" y="1493.5131835938" type="line"/>
			<point x="333.6977539062" y="1534" type="line"/>
			<point x="365.6977539062" y="1534" type="line"/>
			<point x="393.6977539062" y="1502" type="line"/>
			<point x="392.5249023438" y="542" type="line"/>
			<point x="392.6977539062" y="115" type="line"/>
			<point x="543.4567871094" y="80" type="line"/>
			<point x="543.4567871094" y="0" type="line"/>
		</contour>
		<contour>
			<point x="303" y="376" type="line"/>
			<point x="303" y="490" type="line"/>
			<point x="749.5887451172" y="885.9167480469" type="line"/>
			<point x="643.5887451172" y="915.9167480469" type="line"/>
			<point x="643.5887451172" y="1005.9167480469" type="line"/>
			<point x="1005.292175293" y="1005.9167480469" type="line"/>
			<point x="1005.292175293" y="915.9167480469" type="line"/>
			<point x="886.292175293" y="880.9167480469" type="line"/>
		</contour>
		<contour>
			<point x="487.9321289062" y="591.5543212891" type="line"/>
			<point x="610.3434448242" y="674.4949951172" type="line"/>
			<point x="1020.1552124023" y="115" type="line"/>
			<point x="1131.2103881836" y="80" type="line"/>
			<point x="1131.2103881836" y="0" type="line"/>
			<point x="828.0209350586" y="0" type="line"/>
			<point x="816.0209350586" y="79" type="line"/>
			<point x="834.0209350586" y="111" type="line"/>
		</contour>
	</outline>
	<anchor name="bottom" x="608" y="0"/>
	<anchor name="top" x="578" y="1534"/>
</glyph>
<glyph name="l" format="2">
	<unicode hex="006C"/>
	<advance width="635"/>
	<outline>
		<contour>
			<point x="76.2199707031" y="0" type="line"/>
			<point x="76.2199707031" y="80" type="line"/>
			<point x="235.7631835938" y="115" type="line"/>
			<point x="238.9360351562" y="527" type="line"/>
			<point x="235.7631835938" y="1370.271484375" type="line"/>
			<point x="58.4357910156" y="1404.271484375" type="line"/>
			<point x="58.4357910156" y="1498.271484375" type="line"/>
			<point x="344.220703125" y="1534" type="line"/>
			<point x="377.8627929688" y="1534" type="line"/>
			<point x="407.8505859375" y="1502" type="line"/>
			<point x="405.677734375" y="527" type="line"/>
			<point x="407.8505859375" y="115" type="line"/>
			<point x="566.0964355469" y="80" type="line"/>
			<point x="566.0964355469" y="0" type="line"/>
		</contour>
	</outline>
	<anchor name="bottom" x="316" y="0"/>
	<anchor name="center" x="316" y="750"/>
	<anchor name="top" x="316" y="1534"/>
	<anchor name="topright" x="367" y="1000"/>
	<anchor name="centerright" x="746" y="680"/>
	<anchor name="yu_dash" x="321" y="500"/>
	<anchor name="liga" x="632" y="0"/>
</glyph>
<glyph name="m" format="2">
	<unicode hex="006D"/>
	<advance width="1917"/>
	<outline>
		<contour>
			<point x="76.3935546875" y="0" type="line"/>
			<point x="76.3935546875" y="80" type="line"/>
			<point x="224.3959960938" y="115" type="line"/>
			<point x="226.5688476562" y="533.3565063477" type="line"/>
			<point x="224.3959960938" y="847.9167480469" type="line"/>
			<point x="76.3935546875" y="877.9167480469" type="line"/>
			<point x="76.3935546875" y="971.9167480469" type="line"/>
			<point x="338.2796020508" y="1005.9167480469" type="line"/>
			<point x="374.3042602539" y="978.0524902344" type="line"/>
			<point x="391.4833984375" y="871.4846191406" type="line"/>
			<point x="446.15234375" y="937.5710449219"/>
			<point x="638.2446289062" y="1021.9167480469"/>
			<point x="740.0462036133" y="1021.9167480469" type="qcurve" smooth="yes"/>
			<point x="863.9169311523" y="1021.9167480469"/>
			<point x="1011.8922729492" y="939.7932128906"/>
			<point x="1038.1298217773" y="865.5339355469" type="qcurve"/>
			<point x="1093.6392211914" y="937.5710449219"/>
			<point x="1291.7328491211" y="1021.9167480469"/>
			<point x="1399.4031982422" y="1021.9167480469" type="qcurve" smooth="yes"/>
			<point x="1552.0131225586" y="1021.9167480469"/>
			<point x="1709.9864501953" y="887.9167480469"/>
			<point x="1709.9864501953" y="766.9167480469" type="qcurve" smooth="yes"/>
			<point x="1709.9864501953" y="707.0366821289"/>
			<point x="1706.5942993164" y="573.3165283203"/>
			<point x="1706.5543212891" y="568.3565063477" type="qcurve" smooth="yes"/>
			<point x="1709.9864501953" y="115" type="line"/>
			<point x="1860.9888916016" y="80" type="line"/>
			<point x="1860.9888916016" y="0" type="line"/>
			<point x="1415.8260498047" y="0" type="line"/>
			<point x="1415.8260498047" y="80" type="line"/>
			<point x="1537.0718994141" y="115" type="line"/>
			<point x="1537.2817382812" y="572.3565063477" type="line"/>
			<point x="1540.2419433594" y="726.3758544922" type="line" smooth="yes"/>
			<point x="1541.4260253906" y="803.3758544922"/>
			<point x="1431.2233276367" y="874.3758544922"/>
			<point x="1340.2659301758" y="874.3758544922" type="qcurve" smooth="yes"/>
			<point x="1251.0110473633" y="874.3758544922"/>
			<point x="1101.4585571289" y="807.0872802734"/>
			<point x="1056.7258911133" y="738.0225830078" type="qcurve"/>
			<point x="1052.0120239258" y="713.4957885742"/>
			<point x="1051.3150634766" y="636.3165283203"/>
			<point x="1051.3150634766" y="568.3565063477" type="qcurve" smooth="yes"/>
			<point x="1052.7656860352" y="115" type="line"/>
			<point x="1178.7681274414" y="80" type="line"/>
			<point x="1178.7681274414" y="0" type="line"/>
			<point x="750.6052856445" y="0" type="line"/>
			<point x="750.6052856445" y="80" type="line"/>
			<point x="881.8511352539" y="115" type="line"/>
			<point x="882.0239868164" y="566.3565063477" type="line"/>
			<point x="882.0239868164" y="726.3758544922" type="line" smooth="yes"/>
			<point x="882.0239868164" y="803.3758544922"/>
			<point x="771.1243286133" y="874.3758544922"/>
			<point x="683.4783935547" y="874.3758544922" type="qcurve" smooth="yes"/>
			<point x="595.4502563477" y="874.3758544922"/>
			<point x="439.0497436523" y="797.1668701172"/>
			<point x="395.2241210938" y="720.5499267578" type="qcurve"/>
			<point x="395.1376953125" y="526.3565063477" type="line"/>
			<point x="395.310546875" y="115" type="line"/>
			<point x="509.0695800781" y="80" type="line"/>
			<point x="509.0695800781" y="0" type="line"/>
		</contour>
	</outline>
	<anchor name="bottom" x="958" y="0"/>
	<anchor name="top" x="958" y="1000"/>
</glyph>
<glyph name="n" format="2">
	<unicode hex="006E"/>
	<advance width="1261"/>
	<outline>
		<contour>
			<point x="76.3935546875" y="0" type="line"/>
			<point x="76.3935546875" y="80" type="line"/>
			<point x="224.3959960938" y="115" type="line"/>
			<point x="226.5688476562" y="533.3565063477" type="line"/>
			<point x="224.3959960938" y="846.1882324219" type="line"/>
			<point x="76.3935546875" y="876.1882324219" type="line"/>
			<point x="76.3935546875" y="964.0257568359" type="line"/>
			<point x="338.4584960938" y="1005.9167480469" type="line"/>
			<point x="374.3227539062" y="978.9167480469" type="line"/>
			<point x="391.4833984375" y="842.9467163086" type="line"/>
			<point x="439.8423461914" y="917.9346313477"/>
			<point x="623.6203613281" y="1021.9567260742"/>
			<point x="746.7478027344" y="1021.9567260742" type="qcurve" smooth="yes"/>
			<point x="902.2507324219" y="1021.9567260742"/>
			<point x="1054.7199707031" y="887.9567260742"/>
			<point x="1054.7199707031" y="766.9567260742" type="qcurve" smooth="yes"/>
			<point x="1054.7199707031" y="707.0766601562"/>
			<point x="1051.3742675781" y="573.3165283203"/>
			<point x="1051.3742675781" y="568.3565063477" type="qcurve" smooth="yes"/>
			<point x="1054.8063964844" y="115" type="line"/>
			<point x="1205.8088378906" y="80" type="line"/>
			<point x="1205.8088378906" y="0" type="line"/>
			<point x="745.6459960938" y="0" type="line"/>
			<point x="745.6459960938" y="80" type="line"/>
			<point x="881.8918457031" y="115" type="line"/>
			<point x="881.8918457031" y="568.3565063477" type="line"/>
			<point x="881.8918457031" y="728.5697021484" type="line" smooth="yes"/>
			<point x="881.8918457031" y="805.4032592773"/>
			<point x="777.2338867188" y="875.737487793"/>
			<point x="689.34765625" y="875.737487793" type="qcurve" smooth="yes"/>
			<point x="600.1233520508" y="875.737487793"/>
			<point x="439.3634033203" y="794.3287353516"/>
			<point x="395.3969726562" y="708.4240722656" type="qcurve"/>
			<point x="395.310546875" y="568.3565063477" type="line"/>
			<point x="395.4833984375" y="115" type="line"/>
			<point x="509.2424316406" y="80" type="line"/>
			<point x="509.2424316406" y="0" type="line"/>
		</contour>
	</outline>
	<anchor name="bottom" x="632" y="0"/>
	<anchor name="top" x="632" y="1000"/>
	<anchor name="liga" x="1264" y="0"/>
</glyph>
<glyph name="o" format="2">
	<unicode hex="006F"/>
	<advance width="1173"/>
	<outline>
		<contour>
			<point x="64.0020751953" y="502.0347290039" type="qcurve" smooth="yes"/>
			<point x="64.0020751953" y="728.4655761719"/>
			<point x="345.5156860352" y="1024.9967041016"/>
			<point x="586.8046875" y="1024.9967041016" type="qcurve" smooth="yes"/>
			<point x="830.3900756836" y="1024.9967041016"/>
			<point x="1109.4410400391" y="751.3975830078"/>
			<point x="1109.4410400391" y="509.1582641602" type="qcurve" smooth="yes"/>
			<point x="1109.4410400391" y="281.8789672852"/>
			<point x="830.0893554688" y="-17"/>
			<point x="588.5410766602" y="-17" type="qcurve" smooth="yes"/>
			<point x="347.2258911133" y="-17"/>
			<point x="64.0020751953" y="256.8112182617"/>
		</contour>
		<contour>
			<point x="248.9537353516" y="523.1582641602" type="qcurve" smooth="yes"/>
			<point x="249.9537353516" y="344.901184082"/>
			<point x="438.9425048828" y="92.9048461914"/>
			<point x="589.1198730469" y="92.9048461914" type="qcurve" smooth="yes"/>
			<point x="750.0620117188" y="92.9048461914"/>
			<point x="923.9708251953" y="321.3818359375"/>
			<point x="923.9708251953" y="509.1582641602" type="qcurve" smooth="yes"/>
			<point x="923.9708251953" y="681.640625"/>
			<point x="738.7678222656" y="908.9808959961"/>
			<point x="589.1198730469" y="908.9808959961" type="qcurve" smooth="yes"/>
			<point x="425.6483154297" y="908.9808959961"/>
			<point x="247.9537353516" y="703.208984375"/>
		</contour>
	</outline>
	<anchor name="bottom" x="584" y="0"/>
	<anchor name="center" x="584" y="500"/>
	<anchor name="ogonek" x="747" y="0"/>
	<anchor name="top" x="584" y="1000"/>
	<anchor name="topright" x="751" y="1000"/>
	<anchor name="GRKtop" x="584" y="1000"/>
	<anchor name="yu_dash" x="150" y="500"/>
</glyph>
<glyph name="p" format="2">
	<unicode hex="0070"/>
	<advance width="1196"/>
	<outline>
		<contour>
			<point x="58.8521728516" y="-480" type="line"/>
			<point x="58.8521728516" y="-400" type="line"/>
			<point x="210.2329101562" y="-365" type="line"/>
			<point x="212.2329101562" y="429.9583740234" type="line"/>
			<point x="210.2329101562" y="847.9167480469" type="line"/>
			<point x="62.23046875" y="877.9167480469" type="line"/>
			<point x="62.23046875" y="965.7542724609" type="line"/>
			<point x="324.2338867188" y="1005.9167480469" type="line"/>
			<point x="359.2338867188" y="978.9167480469" type="line"/>
			<point x="379.2338867188" y="902.9167480469" type="line"/>
			<point x="425.1569824219" y="956.0366821289"/>
			<point x="596.542175293" y="1022.3165283203"/>
			<point x="709.9033813477" y="1022.3165283203" type="qcurve" smooth="yes"/>
			<point x="895.5106201172" y="1022.3165283203"/>
			<point x="1129.2895507812" y="785.1876220703"/>
			<point x="1129.2895507812" y="532.9583740234" type="qcurve" smooth="yes"/>
			<point x="1129.2895507812" y="275.9505004883"/>
			<point x="879.358581543" y="-12"/>
			<point x="671.0557861328" y="-12" type="qcurve" smooth="yes"/>
			<point x="573.1106567383" y="-12"/>
			<point x="423.5462036133" y="31"/>
			<point x="382.2338867188" y="66" type="qcurve"/>
			<point x="384.2338867188" y="-365" type="line"/>
			<point x="572.5336914062" y="-400" type="line"/>
			<point x="572.5336914062" y="-480" type="line"/>
		</contour>
		<contour>
			<point x="381.2338867188" y="218.2562255859" type="line"/>
			<point x="416.5977783203" y="157.9973144531"/>
			<point x="557.4229736328" y="92.4240112305"/>
			<point x="644.5719604492" y="92.4240112305" type="qcurve" smooth="yes"/>
			<point x="784.9845581055" y="92.4240112305"/>
			<point x="944.1650390625" y="312.4396362305"/>
			<point x="944.1650390625" y="507.9583740234" type="qcurve" smooth="yes"/>
			<point x="944.1650390625" y="704.8046875"/>
			<point x="790.3956298828" y="898.4856567383"/>
			<point x="653.0418701172" y="898.4856567383" type="qcurve" smooth="yes"/>
			<point x="558.1049194336" y="898.4856567383"/>
			<point x="422.7009277344" y="832.0763549805"/>
			<point x="382.2338867188" y="785.9379272461" type="qcurve"/>
			<point x="379.2338867188" y="425.9583740234" type="line"/>
		</contour>
	</outline>
	<anchor name="bottom" x="599" y="0"/>
	<anchor name="top" x="599" y="1000"/>
</glyph>
<glyph name="q" format="2">
	<unicode hex="0071"/>
	<advance width="1173"/>
	<outline>
		<contour>
			<point x="67.8690185547" y="480.9983520508" type="qcurve" smooth="yes"/>
			<point x="67.8690185547" y="738.4775390625"/>
			<point x="341.7586669922" y="1021.3165283203"/>
			<point x="574.553527832" y="1021.3165283203" type="qcurve" smooth="yes"/>
			<point x="655.1135864258" y="1021.3165283203"/>
			<point x="793.629699707" y="971.9967041016"/>
			<point x="839.8359985352" y="923.7968139648" type="qcurve"/>
			<point x="892.8359985352" y="1012.3165283203" type="line"/>
			<point x="1149.9895019531" y="995.3165283203" type="line"/>
			<point x="1149.9895019531" y="898.3165283203" type="line"/>
			<point x="997.6627197266" y="854.3165283203" type="line"/>
			<point x="992.6627197266" y="430.678527832" type="line"/>
			<point x="993.6627197266" y="-365" type="line"/>
			<point x="1149.9625244141" y="-400" type="line"/>
			<point x="1149.9625244141" y="-480" type="line"/>
			<point x="657.9829101562" y="-480" type="line"/>
			<point x="657.9829101562" y="-400" type="line"/>
			<point x="825.0938720703" y="-365" type="line"/>
			<point x="829.0938720703" y="97.8395385742" type="line"/>
			<point x="783.8411254883" y="54.4797363281"/>
			<point x="635.6795654297" y="-9"/>
			<point x="519.3697509766" y="-9" type="qcurve" smooth="yes"/>
			<point x="306.4921875" y="-9"/>
			<point x="67.8690185547" y="255.5991210938"/>
		</contour>
		<contour>
			<point x="252.9564208984" y="506.1582641602" type="qcurve" smooth="yes"/>
			<point x="252.9564208984" y="332.0783081055"/>
			<point x="418.7368164062" y="118.9788208008"/>
			<point x="568.4434814453" y="118.9788208008" type="qcurve" smooth="yes"/>
			<point x="652.065246582" y="118.9788208008"/>
			<point x="790.8359985352" y="167.067199707"/>
			<point x="830.0938720703" y="216.6489257812" type="qcurve"/>
			<point x="832.0938720703" y="817.8800048828" type="line"/>
			<point x="791.8359985352" y="881.350769043"/>
			<point x="664.4320068359" y="916.6705932617"/>
			<point x="592.1254272461" y="916.6705932617" type="qcurve" smooth="yes"/>
			<point x="439.007019043" y="916.6705932617"/>
			<point x="252.9564208984" y="670.5718383789"/>
		</contour>
	</outline>
	<anchor name="bottom" x="594" y="0"/>
	<anchor name="top" x="594" y="1000"/>
</glyph>
<glyph name="r" format="2">
	<unicode hex="0072"/>
	<advance width="857"/>
	<outline>
		<contour>
			<point x="75.9956054688" y="0" type="line"/>
			<point x="75.9956054688" y="80" type="line"/>
			<point x="223.998046875" y="115" type="line"/>
			<point x="226.1708984375" y="532.9167480469" type="line"/>
			<point x="223.998046875" y="845.3239746094" type="line"/>
			<point x="75.9956054688" y="877.9167480469" type="line"/>
			<point x="75.9956054688" y="971.9167480469" type="line"/>
			<point x="338.9248046875" y="1005.9167480469" type="line"/>
			<point x="375.0612792969" y="978.9167480469" type="line"/>
			<point x="392.0854492188" y="862.6010131836" type="line"/>
			<point x="451.078125" y="920.9167480469"/>
			<point x="623.4807128906" y="1005.8767700195"/>
			<point x="739.7783813477" y="1005.9167480469" type="qcurve" smooth="yes"/>
			<point x="831.8220214844" y="1005.9167480469" type="line"/>
			<point x="831.8220214844" y="726.3021850586" type="line"/>
			<point x="724.7973022461" y="726.3021850586" type="line"/>
			<point x="700.7973022461" y="865.4372558594" type="line"/>
			<point x="622.3828735352" y="866.2523193359"/>
			<point x="461.5814819336" y="795.3817749023"/>
			<point x="395.0854492188" y="729.2338256836" type="qcurve"/>
			<point x="395.0854492188" y="567.9167480469" type="line"/>
			<point x="395.0854492188" y="115" type="line"/>
			<point x="565.3312988281" y="80" type="line"/>
			<point x="565.3312988281" y="0" type="line"/>
		</contour>
	</outline>
	<anchor name="bottom" x="432" y="0"/>
	<anchor name="top" x="486" y="1000"/>
</glyph>
<glyph name="s" format="2">
	<unicode hex="0073"/>
	<advance width="884"/>
	<outline>
		<contour>
			<point x="34.0611190881" y="0" type="line"/>
			<point x="34.0611190881" y="346.868347168" type="line"/>
			<point x="130.7102279748" y="346.868347168" type="line"/>
			<point x="139.0064926233" y="280" type="line" smooth="yes"/>
			<point x="151.3426756833" y="194.4438476562"/>
			<point x="313.3920531247" y="95.9233398438"/>
			<point x="434.1683592771" y="94.9233398438" type="qcurve" smooth="yes"/>
			<point x="539.3922972654" y="94.9233398438"/>
			<point x="676.6768431638" y="188.6000976562"/>
			<point x="676.0980467771" y="263.8697509766" type="qcurve" smooth="yes"/>
			<point x="675.5192503904" y="337.2283935547"/>
			<point x="539.2231688474" y="418.5252685547"/>
			<point x="369.1688475583" y="466.1015625" type="qcurve" smooth="yes"/>
			<point x="203.2514281247" y="511.3159179688"/>
			<point x="74.2775511716" y="645.6932983398"/>
			<point x="75.4261703576" y="756.5364379883" type="qcurve" smooth="yes"/>
			<point x="76.5927367185" y="869.7159423828"/>
			<point x="253.4377074216" y="1024.9167480469"/>
			<point x="405.7018675779" y="1024.9167480469" type="qcurve" smooth="yes"/>
			<point x="496.1824583982" y="1024.9167480469"/>
			<point x="619.16756582" y="989.2624511719"/>
			<point x="646.2290892575" y="975.0895996094" type="qcurve"/>
			<point x="656.525353906" y="1005.9167480469" type="line"/>
			<point x="739.857385156" y="1005.9167480469" type="line"/>
			<point x="739.857385156" y="701.9150390625" type="line"/>
			<point x="641.2290892575" y="701.9150390625" type="line"/>
			<point x="624.3220458005" y="787.9167480469" type="line" smooth="yes"/>
			<point x="614.153100488" y="840.3619384766"/>
			<point x="498.318322656" y="912.0488891602"/>
			<point x="410.4626097654" y="912.0488891602" type="qcurve" smooth="yes"/>
			<point x="325.3711791013" y="912.0488891602"/>
			<point x="221.4220824216" y="848.3961181641"/>
			<point x="221.4220824216" y="794.6504516602" type="qcurve" smooth="yes"/>
			<point x="221.4220824216" y="731.8745727539"/>
			<point x="308.5170517053" y="652.9176025391"/>
			<point x="467.967735299" y="612.5734863281" type="qcurve" smooth="yes"/>
			<point x="615.3213119592" y="581.694152832"/>
			<point x="823.449182031" y="443.9390258789"/>
			<point x="823.449182031" y="292.5888061523" type="qcurve" smooth="yes"/>
			<point x="823.449182031" y="145.758605957"/>
			<point x="618.989831445" y="-17"/>
			<point x="459.8238768552" y="-17" type="qcurve" smooth="yes"/>
			<point x="345.1382079099" y="-17"/>
			<point x="179.1697630857" y="28.1728515625"/>
			<point x="128.1955185022" y="58.8271484375" type="qcurve"/>
			<point x="104.3275375451" y="0" type="line"/>
		</contour>
	</outline>
	<anchor name="bottom" x="468" y="0"/>
	<anchor name="top" x="416" y="1000"/>
</glyph>
<glyph name="t" format="2">
	<unicode hex="0074"/>
	<advance width="667"/>
	<outline>
		<contour>
			<point x="41.91796875" y="875.4718017578" type="line"/>
			<point x="41.91796875" y="950.5074462891" type="line"/>
			<point x="159.91796875" y="978.5074462891"/>
			<point x="270.8508300781" y="1087.1971435547"/>
			<point x="309.6923828125" y="1180" type="qcurve"/>
			<point x="351.6923828125" y="1180" type="line"/>
			<point x="384.6923828125" y="1140" type="line"/>
			<point x="379.6923828125" y="979.1917114258" type="line"/>
			<point x="592.0141601562" y="979.1917114258" type="line"/>
			<point x="592.0141601562" y="875.5457763672" type="line"/>
			<point x="382.9643554688" y="875.5457763672" type="line"/>
			<point x="376.9643554688" y="531.8773193359" type="line"/>
			<point x="380.9643554688" y="217.3500366211" type="line" smooth="yes"/>
			<point x="381.9643554688" y="152.3500366211"/>
			<point x="438.9643554688" y="110.3500366211"/>
			<point x="550.0141601562" y="110.3500366211" type="qcurve" smooth="yes"/>
			<point x="593.0141601562" y="110.3500366211" type="line"/>
			<point x="593.0141601562" y="29" type="line"/>
			<point x="340.7041015625" y="-8" type="line"/>
			<point x="263.7041015625" y="-8"/>
			<point x="205.7041015625" y="73"/>
			<point x="205.7041015625" y="163" type="qcurve" smooth="yes"/>
			<point x="206.7041015625" y="531.8773193359" type="line"/>
			<point x="205.7041015625" y="863.4718017578" type="line"/>
		</contour>
	</outline>
	<anchor name="bottom" x="322" y="0"/>
	<anchor name="center" x="312" y="622"/>
	<anchor name="top" x="322" y="1179"/>
	<anchor name="topright" x="540" y="1000"/>
</glyph>
<glyph name="u" format="2">
	<unicode hex="0075"/>
	<advance width="1246"/>
	<outline>
		<contour>
			<point x="56.0571289062" y="877.5169677734" type="line"/>
			<point x="56.0571289062" y="971.5169677734" type="line"/>
			<point x="338.71484375" y="1005.5169677734" type="line"/>
			<point x="362.71484375" y="1005.5169677734" type="line"/>
			<point x="380.71484375" y="969.5169677734" type="line"/>
			<point x="378.71484375" y="472.2004394531" type="line"/>
			<point x="379.71484375" y="277.9418334961" type="line" smooth="yes"/>
			<point x="379.71484375" y="200.9418334961"/>
			<point x="497.1428222656" y="134.9418334961"/>
			<point x="580.6254882812" y="134.9418334961" type="qcurve" smooth="yes"/>
			<point x="663.5161132812" y="134.9418334961"/>
			<point x="810.376953125" y="182.9418334961"/>
			<point x="863.1630859375" y="245.9418334961" type="qcurve"/>
			<point x="863.1630859375" y="472.2004394531" type="line"/>
			<point x="862.1630859375" y="847.5169677734" type="line"/>
			<point x="740.4040527344" y="877.5169677734" type="line"/>
			<point x="740.4040527344" y="971.5169677734" type="line"/>
			<point x="993.0776367188" y="1005.5169677734" type="line"/>
			<point x="1017.0776367188" y="1005.5169677734" type="line"/>
			<point x="1035.0776367188" y="969.5169677734" type="line"/>
			<point x="1032.0776367188" y="472.2004394531" type="line"/>
			<point x="1034.0776367188" y="139" type="line"/>
			<point x="1182.080078125" y="109" type="line"/>
			<point x="1182.080078125" y="31" type="line"/>
			<point x="917.1630859375" y="-3" type="line"/>
			<point x="882.1630859375" y="24" type="line"/>
			<point x="867.1630859375" y="134" type="line"/>
			<point x="807.8981933594" y="68"/>
			<point x="633.17578125" y="-11"/>
			<point x="523.6318359375" y="-11" type="qcurve" smooth="yes"/>
			<point x="360.6481933594" y="-11"/>
			<point x="207.0595703125" y="141.2277832031"/>
			<point x="207.0595703125" y="239" type="qcurve" smooth="yes"/>
			<point x="207.0595703125" y="298.7201538086"/>
			<point x="211.0195922852" y="467.2803955078"/>
			<point x="211.0595703125" y="472.2004394531" type="qcurve" smooth="yes"/>
			<point x="208.0595703125" y="847.5169677734" type="line"/>
		</contour>
	</outline>
	<anchor name="bottom" x="622" y="0"/>
	<anchor name="ogonek" x="1030" y="20"/>
	<anchor name="top" x="622" y="1000"/>
	<anchor name="topright" x="1005" y="1000"/>
	<anchor name="cy_descender" x="1178" y="80"/>
</glyph>
<glyph name="v" format="2">
	<unicode hex="0076"/>
	<advance width="1031"/>
	<outline>
		<contour>
			<point x="-1.5424804688" y="915.9167480469" type="line"/>
			<point x="-1.5424804688" y="1005.9167480469" type="line"/>
			<point x="400.9749755859" y="1005.9167480469" type="line"/>
			<point x="400.9749755859" y="915.9167480469" type="line"/>
			<point x="277.5678710938" y="878.9167480469" type="line"/>
			<point x="404.7594604492" y="527.1987915039" type="line"/>
			<point x="486" y="301" type="line"/>
			<point x="523" y="187" type="line"/>
			<point x="533" y="187" type="line"/>
			<point x="570" y="301" type="line"/>
			<point x="644.6665649414" y="532.2219238281" type="line"/>
			<point x="774.7141113281" y="885.9167480469" type="line"/>
			<point x="654.0096435547" y="915.9167480469" type="line"/>
			<point x="654.0096435547" y="1005.9167480469" type="line"/>
			<point x="1047.3614501953" y="1005.9167480469" type="line"/>
			<point x="1047.3614501953" y="915.9167480469" type="line"/>
			<point x="909.8458251953" y="880.9167480469" type="line"/>
			<point x="751.8633422852" y="479.0127563477" type="line"/>
			<point x="568.8157348633" y="-8" type="line"/>
			<point x="469.9654541016" y="-8" type="line"/>
			<point x="276.9907226562" y="466.0790405273" type="line"/>
			<point x="108.2429199219" y="880.9167480469" type="line"/>
		</contour>
	</outline>
	<anchor name="bottom" x="513" y="0"/>
	<anchor name="top" x="513" y="1000"/>
</glyph>
<glyph name="w" format="2">
	<unicode hex="0077"/>
	<advance width="1589"/>
	<outline>
		<contour>
			<point x="457.2641601562" y="-8" type="line"/>
			<point x="277.940612793" y="471.4956665039" type="line"/>
			<point x="112.873046875" y="880.9167480469" type="line"/>
			<point x="-1.9123535156" y="915.9167480469" type="line"/>
			<point x="-1.9123535156" y="1005.9167480469" type="line"/>
			<point x="400.9661865234" y="1005.9167480469" type="line"/>
			<point x="400.9661865234" y="915.9167480469" type="line"/>
			<point x="304.5590820312" y="878.9167480469" type="line"/>
			<point x="424.7952270508" y="530.4733276367" type="line"/>
			<point x="483" y="294" type="line"/>
			<point x="521" y="180" type="line"/>
			<point x="531" y="180" type="line"/>
			<point x="568" y="294" type="line"/>
			<point x="639.7713012695" y="442.2833862305" type="line"/>
			<point x="725" y="747" type="line"/>
			<point x="678.9999389648" y="880.9167480469" type="line"/>
			<point x="587.4579467773" y="915.9167480469" type="line"/>
			<point x="587.4579467773" y="1005.9167480469" type="line"/>
			<point x="970.3706665039" y="1005.9167480469" type="line"/>
			<point x="970.3706665039" y="915.9167480469" type="line"/>
			<point x="853.9635620117" y="878.9167480469" type="line"/>
			<point x="1011.2477416992" y="418.5550537109" type="line"/>
			<point x="1045" y="294" type="line"/>
			<point x="1082" y="180" type="line"/>
			<point x="1092" y="180" type="line"/>
			<point x="1128" y="294" type="line"/>
			<point x="1234.5446777344" y="522.4896240234" type="line"/>
			<point x="1357.729309082" y="885.9167480469" type="line"/>
			<point x="1237.0248413086" y="915.9167480469" type="line"/>
			<point x="1237.0248413086" y="1005.9167480469" type="line"/>
			<point x="1605.5936279297" y="1005.9167480469" type="line"/>
			<point x="1605.5936279297" y="915.9167480469" type="line"/>
			<point x="1481.0780029297" y="880.9167480469" type="line"/>
			<point x="1308" y="496" type="line"/>
			<point x="1147.8527832031" y="-8" type="line"/>
			<point x="1035.7172241211" y="-8" type="line"/>
			<point x="830" y="480" type="line"/>
			<point x="790" y="595" type="line"/>
			<point x="780" y="595" type="line"/>
			<point x="741" y="480" type="line"/>
			<point x="570.8565063477" y="-8" type="line"/>
		</contour>
	</outline>
	<anchor name="bottom" x="787" y="0"/>
	<anchor name="top" x="787" y="1000"/>
</glyph>
<glyph name="x" format="2">
	<unicode hex="0078"/>
	<advance width="1006"/>
	<outline>
		<contour>
			<point x="4.0207519531" y="0" type="line"/>
			<point x="4.0207519531" y="80" type="line"/>
			<point x="137.0495605469" y="115" type="line"/>
			<point x="444" y="480" type="line"/>
			<point x="101.6973266602" y="880.9167480469" type="line"/>
			<point x="-5.8446655273" y="915.9167480469" type="line"/>
			<point x="-5.8446655273" y="1005.9167480469" type="line"/>
			<point x="397.5534057617" y="1005.9167480469" type="line"/>
			<point x="397.5534057617" y="915.9167480469" type="line"/>
			<point x="294.3897094727" y="881.9167480469" type="line"/>
			<point x="454" y="701" type="line"/>
			<point x="527" y="602" type="line"/>
			<point x="537" y="602" type="line"/>
			<point x="603" y="701" type="line"/>
			<point x="687.4627685547" y="885.9167480469" type="line"/>
			<point x="580.7583007812" y="915.9167480469" type="line"/>
			<point x="580.7583007812" y="1005.9167480469" type="line"/>
			<point x="953.596862793" y="1005.9167480469" type="line"/>
			<point x="953.596862793" y="915.9167480469" type="line"/>
			<point x="820.8114624023" y="880.9167480469" type="line"/>
			<point x="594" y="524" type="line"/>
			<point x="886.3867797852" y="115" type="line"/>
			<point x="997.4965209961" y="80" type="line"/>
			<point x="997.4965209961" y="0" type="line"/>
			<point x="584.5307006836" y="0" type="line"/>
			<point x="584.5307006836" y="80" type="line"/>
			<point x="693.6943969727" y="112" type="line"/>
			<point x="584" y="305" type="line"/>
			<point x="511" y="402" type="line"/>
			<point x="501" y="402" type="line"/>
			<point x="439" y="305" type="line"/>
			<point x="270.3982543945" y="110" type="line"/>
			<point x="398.8593139648" y="80" type="line"/>
			<point x="398.8593139648" y="0" type="line"/>
		</contour>
	</outline>
	<anchor name="bottom" x="522" y="0"/>
	<anchor name="top" x="522" y="1000"/>
	<anchor name="cy_descender" x="1043" y="80"/>
</glyph>
<glyph name="y" format="2">
	<unicode hex="0079"/>
	<advance width="1010"/>
	<outline>
		<contour>
			<point x="-5.6285400391" y="915.9167480469" type="line"/>
			<point x="-4.6285400391" y="1005.9167480469" type="line"/>
			<point x="407.0401000977" y="1005.9167480469" type="line"/>
			<point x="407.0401000977" y="915.9167480469" type="line"/>
			<point x="290.6329956055" y="878.9167480469" type="line"/>
			<point x="416.8935546875" y="565.8297119141" type="line"/>
			<point x="486" y="301" type="line"/>
			<point x="523" y="187" type="line"/>
			<point x="533" y="187" type="line"/>
			<point x="570" y="301" type="line"/>
			<point x="668.0138549805" y="552.7981567383" type="line"/>
			<point x="792.6663208008" y="885.9167480469" type="line"/>
			<point x="671.9618530273" y="915.9167480469" type="line"/>
			<point x="671.9618530273" y="1005.9167480469" type="line"/>
			<point x="1054.3037719727" y="1005.9167480469" type="line"/>
			<point x="1054.3037719727" y="915.9167480469" type="line"/>
			<point x="916.7881469727" y="880.9167480469" type="line"/>
			<point x="767.6178588867" y="496.0469970703" type="line"/>
			<point x="511.7673950195" y="-153.3288574219" type="line" smooth="yes"/>
			<point x="443.4141845703" y="-375.3190307617"/>
			<point x="331.692199707" y="-492"/>
			<point x="235.0551147461" y="-492" type="qcurve"/>
			<point x="89.1120605469" y="-455.4821777344" type="line"/>
			<point x="89.1120605469" y="-367.9841918945" type="line"/>
			<point x="190.2919311523" y="-367.9841918945" type="line" smooth="yes"/>
			<point x="234.3411865234" y="-367.9841918945"/>
			<point x="359.5533447266" y="-294.7041015625"/>
			<point x="407.0849609375" y="-168.6274414062" type="qcurve" smooth="yes"/>
			<point x="502.3671875" y="19.4187011719" type="line"/>
			<point x="502.7740478516" y="19.4187011719" type="line"/>
			<point x="270.1974487305" y="493.9488525391" type="line"/>
			<point x="105.1568603516" y="880.9167480469" type="line"/>
		</contour>
	</outline>
	<anchor name="bottom" x="782" y="0"/>
	<anchor name="top" x="524" y="1000"/>
</glyph>
<glyph name="z" format="2">
	<unicode hex="007A"/>
	<advance width="877"/>
	<outline>
		<contour>
			<point x="24.6442871094" y="0" type="line"/>
			<point x="24.6442871094" y="91.4794921875" type="line"/>
			<point x="620.4871826172" y="887.9009399414" type="line"/>
			<point x="174.805480957" y="887.9009399414" type="line"/>
			<point x="156.1753540039" y="737.7816772461" type="line"/>
			<point x="64.734375" y="737.7816772461" type="line"/>
			<point x="64.734375" y="1005.9167480469" type="line"/>
			<point x="828.2512207031" y="1005.9167480469" type="line"/>
			<point x="828.2512207031" y="915.5852050781" type="line"/>
			<point x="227.1558227539" y="118.0158081055" type="line"/>
			<point x="730.2634277344" y="118.0158081055" type="line"/>
			<point x="748.8935546875" y="268.1350708008" type="line"/>
			<point x="840.1264038086" y="268.1350708008" type="line"/>
			<point x="840.1264038086" y="0" type="line"/>
		</contour>
	</outline>
	<anchor name="bottom" x="443" y="0"/>
	<anchor name="top" x="443" y="1000"/>
	<anchor name="_liga" x="0" y="0"/>
</glyph>
<glyph name="idotless" format="2">
	<unicode hex="0131"/>
	<advance width="635"/>
	<outline>
		<contour>
			<point x="75.0698242188" y="0" type="line"/>
			<point x="75.0698242188" y="80" type="line"/>
			<point x="236.5590820312" y="115" type="line"/>
			<point x="238.7319335938" y="527" type="line"/>
			<point x="236.126953125" y="846.1882324219" type="line"/>
			<point x="75.0698242188" y="876.1882324219" type="line"/>
			<point x="75.0698242188" y="963.7014160156" type="line"/>
			<point x="339.5844726562" y="1005.9167480469" type="line"/>
			<point x="389.5229492188" y="1005.9167480469" type="line"/>
			<point x="414.0786132812" y="969.0646972656" type="line"/>
			<point x="406.4736328125" y="527" type="line"/>
			<point x="408.646484375" y="115" type="line"/>
			<point x="570.1357421875" y="80" type="line"/>
			<point x="570.1357421875" y="0" type="line"/>
		</contour>
	</outline>
	<anchor name="bottom" x="320" y="0"/>
	<anchor name="top" x="320" y="1000"/>
	<anchor name="ogonek" x="513" y="0"/>
	<anchor name="liga" x="639" y="0"/>
</glyph>
<glyph name="jdotless" format="2">
	<advance width="561"/>
	<outline>
		<contour>
			<point x="-50.7961425781" y="-496" type="qcurve"/>
			<point x="-50.6232910156" y="-368" type="line"/>
			<point x="93.3718261719" y="-369.3681640625"/>
			<point x="218.22265625" y="-272.4875488281"/>
			<point x="218.22265625" y="-127.9899902344" type="qcurve" smooth="yes"/>
			<point x="216.0498046875" y="532.9167480469" type="line"/>
			<point x="213.53125" y="846.2746582031" type="line"/>
			<point x="52.560546875" y="876.1882324219" type="line"/>
			<point x="52.560546875" y="963.7014160156" type="line"/>
			<point x="315.9887695312" y="1005.9167480469" type="line"/>
			<point x="366.9272460938" y="1005.9167480469" type="line"/>
			<point x="391.4829101562" y="969.0646972656" type="line"/>
			<point x="383.9643554688" y="532.9167480469" type="line"/>
			<point x="386.1372070312" y="-124.1989746094" type="line" smooth="yes"/>
			<point x="387.2236328125" y="-303.791015625"/>
			<point x="184.591796875" y="-507"/>
		</contour>
	</outline>
	<anchor name="bottom" x="278" y="-436"/>
	<anchor name="top" x="278" y="1000"/>
	<anchor name="_liga" x="0" y="0"/>
</glyph>
